<svg width="9" height="17" viewBox="0 0 9 17" fill="none" xmlns="http://www.w3.org/2000/svg">
<path d="M5.708 4.968H7.497C7.74505 4.96818 7.98918 5.02987 8.20754 5.14755C8.4259 5.26524 8.61167 5.43523 8.74821 5.64232C8.88475 5.84941 8.9678 6.08713 8.98993 6.33419C9.01205 6.58125 8.97257 6.82994 8.875 7.058L4.915 16.301C4.8194 16.5223 4.65049 16.704 4.43668 16.8153C4.22288 16.9267 3.97723 16.9611 3.74107 16.9126C3.50491 16.8641 3.29265 16.7358 3.14002 16.5492C2.98738 16.3626 2.90368 16.1291 2.903 15.888V8.968L1.45 8.923C1.06091 8.91002 0.692097 8.74628 0.421517 8.46637C0.150937 8.18646 -0.00021611 7.81231 2.31914e-07 7.423V1.5C2.31914e-07 1.10218 0.158035 0.720644 0.43934 0.43934C0.720645 0.158035 1.10218 0 1.5 0L4.208 0C4.60582 0 4.98736 0.158035 5.26866 0.43934C5.54996 0.720644 5.708 1.10218 5.708 1.5V4.968Z" fill="white"/>
</svg>
